<?xml version="1.0" encoding="utf-8"?>
<!-- Generator: Adobe Illustrator 16.0.0, SVG Export Plug-In . SVG Version: 6.00 Build 0)  -->
<!DOCTYPE svg PUBLIC "-//W3C//DTD SVG 1.1//EN" "http://www.w3.org/Graphics/SVG/1.1/DTD/svg11.dtd">
<svg version="1.1" id="Capa_1" xmlns="http://www.w3.org/2000/svg" xmlns:xlink="http://www.w3.org/1999/xlink" x="0px" y="0px"
	 width="50.934px" height="50.934px" viewBox="0 0 50.934 50.934" enable-background="new 0 0 50.934 50.934" xml:space="preserve">
<path fill="#1AB379" d="M45.831,2.18l-29.053-2.18c-0.189-0.013-0.374,0.051-0.513,0.181c-0.066,0.061-0.116,0.134-0.155,0.214
	L4.937,4.12C4.659,4.212,4.47,4.473,4.47,4.766v38.858c0,0.247,0.135,0.475,0.352,0.595l11.269,6.26
	c0.036,0.106,0.098,0.204,0.184,0.28c0.127,0.112,0.289,0.174,0.454,0.174c0.025,0,0.051-0.001,0.077-0.006l29.054-3.268
	c0.342-0.04,0.604-0.331,0.604-0.677V2.859C46.462,2.502,46.187,2.208,45.831,2.18z M15.909,48.821L5.833,43.223V5.257l10.076-3.358
	V48.821z M45.098,46.376L17.409,49.49V1.415l27.689,2.077V46.376z"/>
<path fill="#1AB379" d="M21.999,38.228c0.017,0,0.034,0,0.049-0.002l19.047-1.36c0.662-0.016,1.198-0.559,1.198-1.225V10.218
	c0-0.666-0.536-1.21-1.198-1.225l-19.047-1.36c-0.015-0.001-0.032-0.002-0.049-0.002c-0.677,0-1.225,0.551-1.225,1.226v28.146
	C20.775,37.677,21.322,38.228,21.999,38.228z M30.438,15.951c0.021-0.018,0.043-0.038,0.063-0.058
	c0.007-0.005,0.013-0.011,0.021-0.018c0.019-0.019,0.039-0.035,0.06-0.055c-0.001,0-0.003,0-0.003,0
	c0.32-0.305,0.762-0.791,1.025-1.382c0.768-0.478,1.277-1.323,1.277-2.293c0-0.134-0.013-0.267-0.029-0.396l2.312,0.101
	c0.299,0,0.542-0.244,0.542-0.545V9.972l5.224,0.372v25.168l-17.063,1.219v-6.229l15.304-0.536v5.518h0.544V29.4l-6.412,0.226
	V19.548l-0.093,0.054l-2.984-1.198c0.134-0.038,0.277-0.07,0.403-0.098c0.496-0.111,1.009-0.227,1.181-0.609
	c0.095-0.207,0.066-0.447-0.079-0.713c-0.297-0.543-0.727-0.65-1.041-0.729c-0.173-0.043-0.3-0.08-0.382-0.188
	C30.345,16.033,30.388,15.995,30.438,15.951z M29.595,19.622v0.567l-3.068,1.099v-0.568L29.595,19.622z M26.526,20.38v-0.486
	l3.068-1.187v0.573L26.526,20.38z M29.595,20.529v0.567l-3.068,1.101v-0.568L29.595,20.529z M29.595,21.436v0.566l-3.068,1.101
	v-0.566L29.595,21.436z M29.595,22.344v0.567l-3.068,1.099v-0.566L29.595,22.344z M29.595,23.252v0.567l-3.068,1.1v-0.566
	L29.595,23.252z M29.595,24.16v0.567l-3.068,1.1V25.26L29.595,24.16z M29.595,25.068v0.566l-3.068,1.102V26.17L29.595,25.068z
	 M29.595,25.977v0.566l-3.068,1.101v-0.568L29.595,25.977z M29.595,26.885v0.566l-3.068,1.101v-0.566L29.595,26.885z M29.595,27.792
	v1.963l-3.068,0.106v-0.97L29.595,27.792z M32.983,20.715v0.567l-3.066-1.099v-0.568L32.983,20.715z M29.916,19.275v-0.568
	l3.065,1.187v0.481L29.916,19.275z M32.983,21.624v0.568l-3.066-1.101v-0.566L32.983,21.624z M32.983,22.531v0.567l-3.066-1.101
	v-0.566L32.983,22.531z M32.983,23.44v0.566l-3.066-1.099V22.34L32.983,23.44z M32.983,24.347v0.566l-3.066-1.1v-0.568
	L32.983,24.347z M32.983,25.255v0.566l-3.066-1.099v-0.567L32.983,25.255z M32.983,26.164v0.567l-3.066-1.102v-0.566L32.983,26.164z
	 M32.983,27.07v0.568l-3.066-1.101v-0.566L32.983,27.07z M32.983,27.979v0.566l-3.066-1.101V26.88L32.983,27.979z M32.983,28.887
	v0.748l-3.066,0.107v-1.957L32.983,28.887z M22.136,9.004l3.04,0.218v1.678c0,0.301,0.244,0.545,0.546,0.545l1.835,0.079
	c-0.05,0.201-0.077,0.409-0.077,0.624c0,0.97,0.514,1.815,1.281,2.293c0.219,0.491,0.561,0.91,0.854,1.213
	c0.006,0.229,0.094,0.454,0.094,0.454s0.354,0.562,0.848,0.686c0.271,0.068,0.509,0.126,0.688,0.457
	c0.063,0.116,0.072,0.188,0.062,0.217c-0.062,0.131-0.504,0.229-0.797,0.294c-0.507,0.114-1.029,0.23-1.217,0.625l0.017,0.008
	L26.296,19.6l-0.091-0.052v10.325l-2.883,0.103v0.019l-1.188,0.136L22.136,9.004L22.136,9.004z M22.136,30.677l1.187-0.133v6.227
	l-1.187,0.085V30.677z"/>
<path fill="#1AB379" d="M8.269,36.657l4.812,1.737c0.075,0.027,0.154,0.041,0.233,0.041c0.675,0,1.225-0.55,1.225-1.227V9.065
	c0-0.676-0.55-1.227-1.225-1.227c-0.044,0-0.088,0.004-0.132,0.014L8.331,8.809c-0.64,0.041-1.146,0.573-1.146,1.222v25.408
	C7.185,36.068,7.659,36.587,8.269,36.657z M8.547,10.154l4.63-0.914v21.929l-2.588,0.428v4.414l0.545,0.137v-4.088l2.043-0.337
	v5.261l-4.534-1.637c-0.032-0.012-0.063-0.021-0.096-0.027V10.154z"/>
</svg>
