<?xml version="1.0" encoding="utf-8"?>
<!-- Generator: Adobe Illustrator 16.0.0, SVG Export Plug-In . SVG Version: 6.00 Build 0)  -->
<!DOCTYPE svg PUBLIC "-//W3C//DTD SVG 1.1//EN" "http://www.w3.org/Graphics/SVG/1.1/DTD/svg11.dtd">
<svg version="1.1" id="Capa_1" xmlns="http://www.w3.org/2000/svg" xmlns:xlink="http://www.w3.org/1999/xlink" x="0px" y="0px"
	 width="512px" height="512px" viewBox="0 0 512 512" enable-background="new 0 0 512 512" xml:space="preserve">
<path fill="#1AB379" d="M418.587,336.693c-12.511,0-24.396,4.9-33.362,13.762c-8.966,8.967-13.97,20.644-13.97,33.154
	s4.899,24.188,13.97,33.153c9.07,8.861,20.852,13.762,33.362,13.762c25.646,0,46.498-21.06,46.498-46.915
	S444.233,336.693,418.587,336.693z M418.587,409.673c-14.388,0-26.481-11.885-26.481-26.063c0-14.18,12.094-26.064,26.481-26.064
	c14.179,0,25.646,11.677,25.646,26.064C444.233,397.996,432.766,409.673,418.587,409.673z M430.681,180.415
	c-1.877-1.772-4.379-2.71-6.985-2.71h-53.483c-5.733,0-10.425,4.691-10.425,10.425v85.49c0,5.734,4.691,10.426,10.425,10.426h84.864
	c5.734,0,10.426-4.691,10.426-10.426v-57.236c0-2.919-1.251-5.734-3.44-7.715L430.681,180.415z M444.65,263.193h-64.013v-64.743
	h38.991l25.021,22.52V263.193z M163.994,336.693c-12.511,0-24.396,4.9-33.362,13.762c-8.966,8.967-13.97,20.644-13.97,33.154
	s4.9,24.188,13.97,33.153c9.07,8.861,20.851,13.762,33.362,13.762c25.647,0,46.498-21.06,46.498-46.915
	S189.641,336.693,163.994,336.693z M163.994,409.673c-14.387,0-26.481-11.885-26.481-26.063c0-14.18,12.094-26.064,26.481-26.064
	c14.179,0,25.647,11.677,25.647,26.064C189.641,397.996,178.173,409.673,163.994,409.673z M94.456,349.518H73.5v-27.732
	c0-5.734-4.692-10.426-10.426-10.426s-10.426,4.691-10.426,10.426v38.158c0,5.734,4.692,10.426,10.426,10.426h31.381
	c5.734,0,10.426-4.691,10.426-10.426S100.19,349.518,94.456,349.518z M147.313,292.698c0-5.734-4.691-10.426-10.426-10.426H10.426
	C4.691,282.272,0,286.964,0,292.698c0,5.733,4.691,10.425,10.426,10.425h126.462C142.622,303.123,147.313,298.536,147.313,292.698z
	 M31.589,255.062l126.462,0.73c5.734,0,10.426-4.587,10.53-10.321c0.104-5.838-4.587-10.53-10.321-10.53l-126.462-0.73
	c-0.104,0-0.104,0-0.104,0c-5.734,0-10.426,4.587-10.426,10.321C21.164,250.37,25.855,255.062,31.589,255.062z M52.858,207.729
	H179.32c5.734,0,10.426-4.691,10.426-10.425c0-5.734-4.691-10.426-10.426-10.426H52.858c-5.734,0-10.426,4.691-10.426,10.426
	C42.432,203.038,47.124,207.729,52.858,207.729z M508.143,193.655L508.143,193.655l-74.647-61.824
	c-1.876-1.564-4.17-2.398-6.672-2.398H339.04V91.901c0-5.734-4.691-10.425-10.426-10.425H63.075
	c-5.734,0-10.426,4.691-10.426,10.425v76.315c0,5.734,4.692,10.425,10.426,10.425S73.5,173.951,73.5,168.217v-65.89h244.792v247.19
	h-85.49c-5.734,0-10.426,4.691-10.426,10.426s4.691,10.426,10.426,10.426H360.1c5.733,0,10.426-4.691,10.426-10.426
	s-4.692-10.426-10.426-10.426h-20.956V150.285h84.03l67.975,56.298l-0.729,142.726h-10.843c-5.733,0-10.426,4.691-10.426,10.426
	s4.692,10.426,10.426,10.426h21.164c5.734,0,10.426-4.588,10.426-10.321L512,201.787
	C511.896,198.659,510.54,195.636,508.143,193.655z"/>
</svg>
