<?xml version="1.0" encoding="utf-8"?>
<!-- Generator: Adobe Illustrator 16.0.0, SVG Export Plug-In . SVG Version: 6.00 Build 0)  -->
<!DOCTYPE svg PUBLIC "-//W3C//DTD SVG 1.1//EN" "http://www.w3.org/Graphics/SVG/1.1/DTD/svg11.dtd">
<svg version="1.1" id="Capa_1" xmlns="http://www.w3.org/2000/svg" xmlns:xlink="http://www.w3.org/1999/xlink" x="0px" y="0px"
	 width="512px" height="512px" viewBox="0 0 512 512" enable-background="new 0 0 512 512" xml:space="preserve">
<path fill="#1AB379" d="M504.751,168.777l-25.505-25.505c-4.304-4.304-10.076-6.718-16.164-6.718s-11.86,2.414-16.164,6.718
	l-3.464,3.463c-33.692-22.461-72.843-34.322-113.883-34.427c-0.104,0-0.21,0-0.42,0c-25.505,0-50.171,4.513-73.368,13.33
	l44.713-44.713c5.668,2.729,11.86,4.094,18.264,4.094c11.336,0,22.042-4.408,30.019-12.49c7.978-7.978,12.49-18.683,12.49-30.019
	s-4.408-22.042-12.49-30.019S330.096,0,318.761,0c-11.336,0-22.042,4.408-30.019,12.49c-7.978,8.082-12.491,18.683-12.491,30.019
	c0,6.403,1.47,12.7,4.094,18.263l-80.505,80.505l-2.729-2.729c-4.303-4.304-10.076-6.718-16.164-6.718
	c-6.088,0-11.861,2.414-16.164,6.718l-25.821,25.715c-4.303,4.303-6.717,10.076-6.717,16.164c0,6.087,2.414,11.86,6.717,16.164
	l2.729,2.729l-80.505,80.505c-5.668-2.729-11.861-4.094-18.263-4.094c-11.336,0-22.042,4.408-30.019,12.49
	c-16.583,16.584-16.583,43.559,0,60.038c7.977,7.978,18.683,12.49,30.019,12.49s22.042-4.408,30.019-12.49
	c13.016-13.015,15.849-32.538,8.292-48.282l44.713-44.713c-8.816,23.301-13.435,48.177-13.33,73.788
	c0.105,41.04,11.966,80.19,34.427,113.883l-4.303,4.304c-8.922,8.922-8.922,23.511,0,32.433l25.61,25.61
	c4.304,4.304,10.077,6.718,16.164,6.718c6.088,0,11.861-2.414,16.164-6.718l25.61-25.61c8.922-8.922,8.922-23.511,0-32.433
	l-25.61-25.61c-4.303-4.304-10.076-6.718-16.164-6.718s-11.86,2.414-16.164,6.718l-0.734,0.734
	c-36.841-59.723-35.267-136.975,4.933-195.123c2.624,1.05,5.353,1.574,8.292,1.574c6.087,0,11.86-2.414,16.164-6.717l25.611-25.61
	c6.612-6.613,8.292-16.269,5.143-24.456c58.149-40.2,135.4-41.879,195.123-4.933l-1.574,1.574c-8.922,8.922-8.922,23.511,0,32.433
	l25.61,25.61c4.304,4.304,10.076,6.718,16.164,6.718s11.86-2.414,16.164-6.718l25.61-25.61
	C513.778,192.289,513.778,177.804,504.751,168.777z M202.358,463.613l-17.948,17.948l-17.948-17.948l17.948-17.948L202.358,463.613z
	 M308.579,32.643c2.624-2.624,6.192-4.094,9.972-4.094c3.778,0,7.347,1.47,9.971,4.094s4.094,6.192,4.094,9.971
	c0,3.778-1.47,7.347-4.094,9.971s-6.192,4.093-9.971,4.093c-3.779,0-7.348-1.469-9.972-4.093l0,0l0,0
	c-2.624-2.624-4.093-6.193-4.093-9.971C304.486,38.835,305.955,35.372,308.579,32.643z M52.894,328.318
	c-2.624,2.624-6.193,4.094-9.971,4.094c-3.779,0-7.347-1.47-9.971-4.094c-5.563-5.563-5.563-14.484,0-19.943
	c2.624-2.623,6.192-4.093,9.971-4.093c3.778,0,7.347,1.47,9.971,4.093C58.457,313.834,58.457,322.86,52.894,328.318z
	 M180.737,198.376l-17.949-17.948l17.949-17.949l8.921,8.922l0,0l0,0l8.922,8.922L180.737,198.376z M462.977,202.89l-17.948-17.948
	l17.948-17.948l17.948,17.948L462.977,202.89z"/>
</svg>
